<?xml version="1.0" encoding="utf-8"?>
<!-- Generator: Adobe Illustrator 16.0.0, SVG Export Plug-In . SVG Version: 6.00 Build 0)  -->
<!DOCTYPE svg PUBLIC "-//W3C//DTD SVG 1.1//EN" "http://www.w3.org/Graphics/SVG/1.1/DTD/svg11.dtd">
<svg version="1.1" id="Layer_1" xmlns="http://www.w3.org/2000/svg" xmlns:xlink="http://www.w3.org/1999/xlink" x="0px" y="0px"
	 width="365px" height="500px" viewBox="0 0 365 500" style="enable-background:new 0 0 365 500;" xml:space="preserve">
<style type="text/css">
<![CDATA[
	.st0{fill:#151515;}
	.st1{fill-rule:evenodd;clip-rule:evenodd;fill:#E1E6F4;}
	.st2{fill-rule:evenodd;clip-rule:evenodd;fill:#E4BF9E;}
	.st3{fill-rule:evenodd;clip-rule:evenodd;fill:#EDCAA6;}
	.st4{fill-rule:evenodd;clip-rule:evenodd;fill:#EFCDB0;}
	.st5{fill-rule:evenodd;clip-rule:evenodd;fill:#556CB3;}
	.st6{fill-rule:evenodd;clip-rule:evenodd;fill:#F15957;}
	.st7{fill-rule:evenodd;clip-rule:evenodd;fill:#F6D6B2;}
	.st8{fill-rule:evenodd;clip-rule:evenodd;fill:#FFDDB8;}
	.st9{fill:#0D0D0D;}
	.st10{fill-rule:evenodd;clip-rule:evenodd;fill:#D1D8EE;}
]]>
</style>
<path class="st5" d="M70,339.2C40.8,358.1,28.8,398.8,11.6,447c47.9,33.4,106.2,53,169,53c62.8,0,120.9-19.6,168.8-52.9
	c-17.1-48.4-28.9-89.4-58.4-107.9c-50.5-31.6-80.9-39.2-110.7-39.6C149.9,299.2,120.1,306.7,70,339.2z"/>
<path class="st2" d="M138.7,188.5h83.6v120.9c0,20.5-32.3,94.1-41.8,160.2c-6.9-40.2-41.8-137.6-41.8-160.2V188.5z"/>
<path class="st10" d="M180.5,469.7c0-65.1-48.7-141.1-40.5-212.8c-5.1-3-9.9-6.6-14.6-10.5c-28,12.8-48.9,50.7-58.6,68.9
	C149.5,317.1,158.3,414.7,180.5,469.7z"/>
<path class="st1" d="M180.5,469.7c0-94,40.5-86.4,40.5-212.8c5.1-3,9.9-6.6,14.6-10.5c28,12.8,48.9,50.7,58.6,68.9
	C211.5,317.1,202.7,414.7,180.5,469.7z"/>
<path class="st6" d="M203.3,372c-8.5,27.2-17.3,58.3-21.5,87.9c-3.5-20.5-14.3-55.8-24-88.4c7.5,1.6,15.7,2.5,24.2,2.5
	C189.4,373.9,196.6,373.2,203.3,372z"/>
<polygon class="st5" points="11.6,447 180.5,469.7 349.5,447.1 364.1,500 -1,500 "/>
<path class="st9" d="M185.2,14.6c-4.6-2.5-4.6-5.9-14.5-8.6c-6.7-1.8-19.1-1.4-26.2-0.7c-15.2,1.4-32.2,5.6-44,15.8
	C88.3,31.6,78,45.4,71.3,60c-4.1,8.9-3.7,23.6-10.7,30.8c1.2-1.4,3.4-2.6,4.7-3.6c2.5,17.1-14,29.2-16.3,44.3c2.7-0.2,4-0.2,5.5-2.7
	c0.3,6.9-2.4,14.1-2.7,21.1c-0.5,10.4,1.4,19,4.9,28.7c-0.2-2.6,0.2-5.7,1.6-8.1c2.2,11.1,8.3,20.5,14.3,30.1
	c4.1,6.5,9.7,16.8,15.7,21.3c1.4-4.6,2.8-12.4,8.7-12c3,0.2,8.6,7.3,10.8,9.2c5.8,5,9.8,8.3,17.9,7.1c12.5-1.9,21.4-7.2,34.4-4.9
	c6.1,1.1,11.2,4.6,17.2,5.6c9.1,1.5,11.1-4.9,18.5-8.4c11.7-5.5,24.3-1.6,36.7-1.5c4.3,0,11.2,0,15.1,1.4c5.3,2,4.9,6,11.3,2.3
	c1.9,3.3,6.1,2.1,9.4,1.4c-0.3,1.9,0.6,4.3,0.2,6.2c8.1-0.2,17.2-18.5,20.5-25c5.9-11.4,12.2-24.5,13.8-37c0,4.4-0.1,9,0.1,13.4
	c6.9-3.8,6.3-12.2,7.6-19.3c1.8-9.5,1.7-19.6,1.6-29.3c-0.2-14.6-6.1-26.5-12.1-39.3c3.2,3.1,7.5,6.2,10.6,8.3
	c4.2-22.2-8.7-42-25.1-55.7c-7.9-6.6-16.9-10.5-26.2-15.4c-5.3-2.9-7.3-1.1-3.1-6.8c2.7-3.6,9.2-6.2,12.3-8.8
	c-11.7-13.5-36-13.4-52.1-12.8C195.6,1,185.2,14.6,185.2,14.6z"/>
<path class="st4" d="M182.5,87.3c182.2,0,108.3,240.7,0,240.7C74.1,328,0.3,87.3,182.5,87.3z"/>
<g>
	<path class="st3" d="M300.9,168.3c6.8,1.5,9.5,15.6,6,31.4c-3.5,15.8-11.9,27.4-18.7,25.9c-6.8-1.5-9.5-15.6-6-31.4
		C285.7,178.4,294.1,166.8,300.9,168.3z"/>
	<path class="st3" d="M60.1,168.3c-6.8,1.5-9.5,15.6-6,31.4c3.5,15.8,11.9,27.4,18.7,25.9c6.8-1.5,9.5-15.6,6-31.4
		C75.3,178.4,66.9,166.8,60.1,168.3z"/>
</g>
<path class="st7" d="M182.4,90.7c-177.1,0-105.3,233.9,0,233.9C287.7,324.6,359.5,90.7,182.4,90.7z"/>
<path class="st8" d="M182.4,90.7c177.1,0,105.3,233.9,0,233.9V90.7z"/>
<path class="st9" d="M87.6,160.5c21.1-4.1,33.7-35.8,47.4-50.7c1,12.3-1.1,21.5-7.8,29.7c9.7,3.6,28-4,35-10.4
	c12.5-11.3,19-18.2,28.6-30.1c1.6,14.5-11,29.4-19.2,39.8c9.8,0.4,28.5-11.1,35.9-16.5c9-6.6,18.5-16.1,24.3-23.6
	c0,17.6-1.6,29.9-10,45.1c16.9-0.9,28.8-19.6,35.6-32c1.7,7,3.4,11,5.1,19.8c1.3,6.9,1.4,22,2,28.8c11-7.2,18.7-23.1,21-33.9
	c3.6-17.3-6.1-31.2-14.8-44.9c-4.6-7.2-10.9-10.1-17.2-15c-6.1-4.7-10.9-11.1-17.4-15.6c-16-11.1-35.1-13.2-54.3-14.5
	c-15.9-1.1-30.5,1.7-45.5,7.7c-12.3,4.9-20.8,16.6-30,26c-17.3,17.8-28,40.5-28,66L87.6,160.5z"/>
<path class="st0" d="M312.1,130.9c-0.2-14.6-6.1-26.5-12.1-39.3c3.2,3.1,7.5,6.2,10.6,8.3c4.2-22.2-8.7-42-25.1-55.7
	c-7.9-6.6-16.9-10.5-26.2-15.4c-5.3-2.9-7.3-1.1-3.1-6.8c2.7-3.6,9.2-6.2,12.3-8.8c-11.7-13.5-36-13.4-52.1-12.8
	c-20.8,0.7-31.2,14.3-31.2,14.3c-1.1-0.6-1.9-1.2-2.7-1.9V23v13.5v5.2V109c2.6-3,5.3-6.2,8.3-9.9c1,8.6-3.1,17.4-8.3,25.3v12
	c9.3-3.6,19.9-10.3,25-14.1c9-6.6,18.5-16.1,24.3-23.6c0,17.6-1.6,29.9-10,45.1c16.9-0.9,28.8-19.6,35.6-32c1.7,7,3.4,11,5.1,19.8
	c0.8,4.2,1.2,11.6,1.4,18.2c0.2,4.1,0.3,8,0.6,10.6c4.9-3.2,9.2-8.2,12.6-13.6c0,0,0-0.1,0.1-0.1v0.1c5.9,0,11.3,1.7,16,4.5
	c7.9,4.9,13.5,13.3,14.5,23c2-4.1,2-9.5,2.9-14.2C312.3,150.7,312.2,140.6,312.1,130.9z"/>
</svg>
