<?xml version="1.0" encoding="utf-8"?>
<!-- Generator: Adobe Illustrator 16.0.0, SVG Export Plug-In . SVG Version: 6.00 Build 0)  -->
<!DOCTYPE svg PUBLIC "-//W3C//DTD SVG 1.1//EN" "http://www.w3.org/Graphics/SVG/1.1/DTD/svg11.dtd">
<svg version="1.1" id="Layer_1" xmlns="http://www.w3.org/2000/svg" xmlns:xlink="http://www.w3.org/1999/xlink" x="0px" y="0px"
	 width="500px" height="500px" viewBox="0 0 500 500" style="enable-background:new 0 0 500 500;" xml:space="preserve">
<style type="text/css">
<![CDATA[
	.st0{fill:#BE5D5D;}
	.st1{fill:#C97329;}
	.st2{opacity:0.2;}
	.st3{opacity:0.3;}
	.st4{opacity:0.1;fill:#231F20;}
	.st5{fill:#DCEAE7;}
]]>
</style>
<g>
	<path class="st0" d="M486.1,230.4L266,10.2C261.2,5.4,254.9,3,248.6,3c-6.3,0-12.6,2.4-17.4,7.2L11.1,230.4
		c-9.6,9.6-9.6,25.1,0,34.7l19.5,19.5c9.6,9.6,25.1,9.6,34.7,0l183.3-183.3l183.3,183.3c9.6,9.6,25.1,9.6,34.7,0l19.5-19.5
		C495.7,255.5,495.7,240,486.1,230.4z"/>
	<path class="st5" d="M431.9,284.6L248.6,101.3L65.3,284.6c-1.2,1.2-2.6,2.3-4,3.2v181.3c0,13.6,11,24.5,24.5,24.5h325.5
		c13.6,0,24.5-11,24.5-24.5V287.8C434.5,286.9,433.2,285.8,431.9,284.6z"/>
	<path class="st2" d="M411.4,493.6H85.8c-13.6,0-24.5-11-24.5-24.5v6.1c0,13.6,11,24.5,24.5,24.5h325.5c13.6,0,24.5-11,24.5-24.5
		v-6.1C435.9,482.7,424.9,493.6,411.4,493.6z"/>
	<path class="st1" d="M315.3,493.6V334.4c0-15.2-12.4-27.6-27.6-27.6h-78.2c-15.2,0-27.6,12.4-27.6,27.6v159.2H315.3z"/>
	<path class="st0" d="M435.9,180.1V27.6c0-13.6-11-24.5-24.5-24.5h-58.3c-13.6,0-24.5,11-24.5,24.5v45.2L435.9,180.1z"/>
	<path class="st3" d="M287.7,306.8h-78.2c-15.2,0-27.6,12.4-27.6,27.6v6.1c0-15.2,12.4-27.6,27.6-27.6h78.2
		c15.2,0,27.6,12.4,27.6,27.6v-6.1C315.3,319.2,302.9,306.8,287.7,306.8z"/>
	<path class="st3" d="M63.3,286.4c-0.7,0.5-1.3,1-2,1.5v6.1c1.4-0.9,2.8-2,4-3.2l183.3-183.3l183.3,183.3c1.2,1.2,2.6,2.3,4,3.2
		v-6.1c-0.7-0.5-1.4-0.9-2-1.5c0,0,0,0,0,0c-0.7-0.5-1.3-1.1-1.9-1.7L248.6,101.3L65.3,284.6C64.7,285.2,64,285.8,63.3,286.4
		C63.4,286.3,63.3,286.3,63.3,286.4z"/>
	<polygon class="st3" points="328.6,72.8 435.9,180.1 435.9,174 328.6,66.7 	"/>
</g>
<path class="st4" d="M486.1,230.4l-50.2-50.2V27.6c0-13.6-11-24.5-24.5-24.5h-58.3c-13.6,0-24.5,11-24.5,24.5v45.2L266,10.2
	C261.2,5.4,254.9,3,248.6,3v490.6h162.8c13.6,0,24.5-11,24.5-24.5V287.8c0,0,0,0,0,0c9.5,6.2,22.4,5.1,30.7-3.2l19.5-19.5
	C495.7,255.5,495.7,240,486.1,230.4z"/>
</svg>
