<?xml version="1.0" encoding="utf-8"?>
<!-- Generator: Adobe Illustrator 16.0.0, SVG Export Plug-In . SVG Version: 6.00 Build 0)  -->
<!DOCTYPE svg PUBLIC "-//W3C//DTD SVG 1.1//EN" "http://www.w3.org/Graphics/SVG/1.1/DTD/svg11.dtd">
<svg version="1.1" xmlns="http://www.w3.org/2000/svg" xmlns:xlink="http://www.w3.org/1999/xlink" x="0px" y="0px" width="500px"
	 height="500px" viewBox="0 0 500 500" style="enable-background:new 0 0 500 500;" xml:space="preserve">
<style type="text/css">
<![CDATA[
	.st0{fill:#7EC3E2;}
	.st1{display:inline;fill:#E98B23;}
	.st2{fill:#E05151;}
	.st3{fill:#E48725;}
	.st4{fill:#E98B23;}
	.st5{fill:#BDD1CC;}
	.st6{fill:#F16060;}
	.st7{display:inline;fill:#C13B2B;}
	.st8{fill:#F99C2B;}
	.st9{fill:#CD494F;}
	.st10{fill:#CDDBD8;}
	.st11{fill:#CE4A4F;}
	.st12{fill:#6EB5C9;}
	.st13{fill:#D14935;}
	.st14{display:none;}
	.st15{fill:#DAE7E5;}
	.st16{fill:#DBE8E5;}
	.st17{fill:#DF5051;}
	.st18{display:inline;fill:#E2E2E1;}
]]>
</style>
<g id="Layer_2">
	<path class="st9" d="M367.8,205.8c0,0,97-2.2,67,120.4c-12.4,50.8-71,107-71,107s-47.9-40.1-43.2-50
		C349.6,322.8,367.8,205.8,367.8,205.8z"/>
	<path class="st13" d="M368.8,201.8c0,0,97-2.2,67,120.4c-12.4,50.8-71,107-71,107s-47.9-40.1-43.2-50
		C350.6,318.8,368.8,201.8,368.8,201.8z"/>
	<path class="st2" d="M368.8,201.8c0,0,97-2.2,67,120.4c-12.4,50.8-71,107-71,107s-47.9-40.1-43.2-50
		C350.6,318.8,368.8,201.8,368.8,201.8z"/>
	<path class="st11" d="M130.2,204.8c0,0-97-2.2-67,120.4c12.4,50.8,71,107,71,107s47.9-40.1,43.2-50
		C148.4,321.8,130.2,204.8,130.2,204.8z"/>
	<path class="st6" d="M129.2,201.8c0,0-97-2.2-67,120.4c12.4,50.8,71,107,71,107s47.9-40.1,43.2-50
		C147.4,318.8,129.2,201.8,129.2,201.8z"/>
	<path class="st9" d="M136.7,139.4h223.9c0,0-52.3-133.4-112-133.4C189,6,136.7,139.4,136.7,139.4z"/>
	<path class="st5" d="M136.6,143.7h112c0,0,0,90.8,0,255.7c0,9.4-68,5.6-68,5.6S107.3,204.8,136.6,143.7z"/>
	<polygon class="st3" points="202.4,433.3 300.8,433.3 281.9,468.5 271.5,450.9 253.7,500 235.9,469.6 219.1,484.5 	"/>
	<polygon class="st8" points="202.8,429.8 301.2,429.8 282.3,465 271.9,447.4 254.1,496.5 236.3,463.1 219.6,477.9 	"/>
	<path class="st6" d="M139.6,136.5h223.9c0,0-52.3-133.4-112-133.4C191.9,3.1,139.6,136.5,139.6,136.5z"/>
	<path class="st16" d="M139.6,140.7h112c0,0,0,90.8,0,255.7c0,9.4-68,5.6-68,5.6S110.3,201.8,139.6,140.7z"/>
	<path class="st15" d="M360.7,140.7h-112c0,0,0,94.1,0,259c0,9.4,68,2.3,68,2.3S390,201.8,360.7,140.7z"/>
	<path class="st10" d="M359.7,140.7H252c0,0,0,94.1,0,259c0,9.4,65.4,2.3,65.4,2.3S387.9,201.8,359.7,140.7z"/>
	<path class="st2" d="M251.7,136.5l112.8,2.8c0,0-53.3-136.2-113-136.2"/>
	<polyline class="st4" points="253.3,430.3 300.8,430.3 281.9,465.5 271.5,447.9 253.7,497 	"/>
	<path class="st6" d="M305,228.9c0,31.3-25.2,56.8-56.2,56.8c-31.1,0-56.2-25.4-56.2-56.8c0-31.3,25.2-56.8,56.2-56.8
		C279.8,172.1,305,197.6,305,228.9z"/>
	<path class="st17" d="M252.4,172.1c29.1,0,52.7,25.4,52.7,56.8c0,31.3-23.6,56.8-52.7,56.8"/>
	<ellipse class="st0" cx="248.7" cy="228.9" rx="44.2" ry="44.6"/>
	<rect x="190.7" y="399.1" class="st6" width="116" height="18.5"/>
	<path class="st12" d="M252.4,184.3c22.4,0,40.6,20,40.6,44.6c0,24.6-18.2,44.6-40.6,44.6"/>
</g>
<g id="Layer_3" class="st14">
	<path class="st7" d="M251.7,135.5h111.8c0,0-52.3-133.4-112-133.4"/>
	<path class="st18" d="M360.7,144.7h-112c0,0,0,94.1,0,259c0,9.4,68,2.3,68,2.3S390,205.8,360.7,144.7z"/>
	<path class="st7" d="M381.8,205.8c0,0,97-2.2,67,120.4c-12.4,50.8-71,107-71,107s-47.9-40.1-43.2-50
		C363.6,322.8,381.8,205.8,381.8,205.8z"/>
	<polyline class="st1" points="253.3,433.3 300.8,433.3 281.9,468.5 271.5,450.9 253.7,500 	"/>
</g>
</svg>
