<?xml version="1.0" encoding="utf-8"?>
<!-- Generator: Adobe Illustrator 16.0.0, SVG Export Plug-In . SVG Version: 6.00 Build 0)  -->
<!DOCTYPE svg PUBLIC "-//W3C//DTD SVG 1.1//EN" "http://www.w3.org/Graphics/SVG/1.1/DTD/svg11.dtd">
<svg version="1.1" id="Layer_1" xmlns="http://www.w3.org/2000/svg" xmlns:xlink="http://www.w3.org/1999/xlink" x="0px" y="0px"
	 width="500px" height="500px" viewBox="0 0 500 500" style="enable-background:new 0 0 500 500;" xml:space="preserve">
<style type="text/css">
<![CDATA[
	.st0{fill:#69767C;}
	.st1{opacity:0.1;fill:#231F20;}
	.st2{fill-rule:evenodd;clip-rule:evenodd;fill:#69767C;}
	.st3{opacity:0.3;fill:#231F20;}
	.st4{fill:#DCEAE7;}
]]>
</style>
<g>
	<path class="st4" d="M456.1,0H47.3C22.5,0,2.5,25.8,2.5,57.7v378.7c0,31.9,20.1,57.7,44.8,57.7h408.8c24.7,0,44.8-25.8,44.8-57.7
		V57.7C500.9,25.8,480.8,0,456.1,0L456.1,0z"/>
	<path class="st2" d="M2.5,90.2h498.4V57.7c0-31.9-20.1-57.7-44.8-57.7H47.3C22.5,0,2.5,25.8,2.5,57.7V90.2z"/>
	<path class="st3" d="M456.1,494H47.3c-24.7,0-44.8-25.8-44.8-57.7v7.2c0,31.9,20.1,57.7,44.8,57.7h408.8
		c24.7,0,44.8-25.8,44.8-57.7v-7.2C500.9,468.2,480.8,494,456.1,494z"/>
	<path class="st0" d="M384.6,251.8h-17.7c-1.8-5.7-3.9-11.2-6.4-16.5L373,222c4.8-5.1,4.8-13.5,0-18.7l-37.1-39.5
		c-4.9-5.2-12.7-5.2-17.5,0l-12.5,13.4c-5-2.6-10.2-4.9-15.5-6.8v-18.9c0-7.3-5.6-13.2-12.4-13.2h-52.5c-6.9,0-12.4,5.9-12.4,13.2
		v18.9c-5.3,1.9-10.5,4.2-15.5,6.8L185,163.7c-4.8-5.2-12.7-5.1-17.5,0l-37.1,39.5c-4.9,5.2-4.9,13.5,0,18.7l12.5,13.4
		c-2.5,5.3-4.6,10.8-6.4,16.5h-17.7c-6.8,0-12.4,5.9-12.4,13.2V321c0,7.3,5.5,13.2,12.4,13.2h17.7c1.8,5.7,3.9,11.2,6.4,16.5
		l-12.5,13.4c-4.8,5.1-4.8,13.5,0,18.7l37.1,39.5c4.9,5.2,12.7,5.2,17.5,0l12.5-13.4c5,2.6,10.2,4.9,15.5,6.8v18.9
		c0,7.3,5.6,13.2,12.4,13.2h52.5c6.9,0,12.4-5.9,12.4-13.2v-18.9c5.3-1.9,10.5-4.2,15.5-6.8l12.5,13.4c4.8,5.1,12.7,5.1,17.5,0
		l37.1-39.5c4.9-5.2,4.9-13.5,0-18.7l-12.5-13.4c2.5-5.3,4.6-10.8,6.4-16.5h17.7c6.8,0,12.4-5.9,12.4-13.2v-55.9
		C397,257.8,391.5,251.8,384.6,251.8z M251.7,383.6c-47,0-85-40.6-85-90.6c0-50,38.1-90.6,85-90.6s85,40.6,85,90.6
		C336.7,343,298.6,383.6,251.7,383.6z"/>
	<rect x="2.5" y="90.2" class="st3" width="498.4" height="7.2"/>
	<path class="st1" d="M456.1,0H251.7v494h204.4c24.7,0,44.8-25.8,44.8-57.7V57.7C500.9,25.8,480.8,0,456.1,0z"/>
</g>
</svg>
