<?xml version="1.0" encoding="utf-8"?>
<!-- Generator: Adobe Illustrator 16.0.0, SVG Export Plug-In . SVG Version: 6.00 Build 0)  -->
<!DOCTYPE svg PUBLIC "-//W3C//DTD SVG 1.1//EN" "http://www.w3.org/Graphics/SVG/1.1/DTD/svg11.dtd">
<svg version="1.1" id="Layer_1" xmlns="http://www.w3.org/2000/svg" xmlns:xlink="http://www.w3.org/1999/xlink" x="0px" y="0px"
	 width="500px" height="500px" viewBox="0 0 500 500" style="enable-background:new 0 0 500 500;" xml:space="preserve">
<style type="text/css">
<![CDATA[
	.st0{opacity:0.3;fill:#FFFFFF;}
	.st1{fill:#B4B4B4;}
	.st2{fill:#231F20;}
	.st3{fill:#C7C5C5;}
	.st4{opacity:0.3;}
	.st5{fill:#FFFFFF;}
	.st6{opacity:0.1;fill:#231F20;}
]]>
</style>
<g>
	<path class="st0" d="M250,317.1c-37.7,0-68.4-29.8-69.9-67.1c0,0.9-0.1,1.9-0.1,2.9c0,38.6,31.3,70,70,70c38.7,0,70-31.3,70-70
		c0-1,0-1.9-0.1-2.9C318.4,287.3,287.7,317.1,250,317.1z"/>
	<path class="st1" d="M250,118.5c-71,0-128.6,57.6-128.6,128.6c0,71,57.6,128.6,128.6,128.6c71,0,128.6-57.6,128.6-128.6
		C378.6,176.1,321,118.5,250,118.5z M250,315.7c-37.9,0-68.6-30.7-68.6-68.6c0-37.9,30.7-68.6,68.6-68.6c37.9,0,68.6,30.7,68.6,68.6
		C318.6,285,287.9,315.7,250,315.7z"/>
	<path class="st3" d="M475.8,197.1l-56.9-3.6c-3.1-9.7-7-19-11.6-27.9l37.7-42.8c7.8-7.8,7.8-20.5,0-28.3l-42.4-42.4
		c-7.8-7.8-20.5-7.8-28.3,0l-42.8,37.7c-8.9-4.6-18.2-8.5-27.9-11.6L300,21.4c0-11-9-20-20-20h-60c-11,0-20,9-20,20l-3.6,56.9
		c-9.7,3.1-19,7-27.9,11.6l-42.8-37.7c-7.8-7.8-20.5-7.8-28.3,0L55,94.6c-7.8,7.8-7.8,20.5,0,28.3l37.7,42.8
		c-4.6,8.9-8.5,18.2-11.6,27.9l-56.9,3.6c-11,0-20,9-20,20v60c0,11,9,20,20,20l56.9,3.6c3.1,9.7,7,19,11.6,27.9L55,371.4
		c-7.8,7.8-7.8,20.5,0,28.3l42.4,42.4c7.8,7.8,20.5,7.8,28.3,0l42.8-37.7c8.9,4.6,18.2,8.5,27.9,11.6l3.6,56.9c0,11,9,20,20,20h60
		c11.1,0,20-9,20-20l3.6-56.9c9.7-3.1,19-7,27.9-11.6l42.8,37.7c7.8,7.8,20.5,7.8,28.3,0l42.4-42.4c7.8-7.8,7.8-20.5,0-28.3
		l-37.7-42.8c4.6-8.9,8.5-18.2,11.6-27.9l56.9-3.6c11,0,20-9,20-20v-60C495.8,206.1,486.8,197.1,475.8,197.1z M250,375.8
		c-71,0-128.6-57.6-128.6-128.6c0-71,57.6-128.6,128.6-128.6c71,0,128.6,57.6,128.6,128.6C378.6,318.2,321,375.8,250,375.8z"/>
	<g class="st4">
		<path class="st2" d="M407.4,165.6c0.6,1.2,1.2,2.4,1.8,3.7l35.9-40.7c4.6-4.6,6.5-11,5.6-17c-0.6,4.1-2.5,8.1-5.6,11.3
			L407.4,165.6z"/>
		<path class="st2" d="M90.8,169.3c0.6-1.2,1.2-2.5,1.8-3.7L55,122.9c-3.2-3.2-5-7.2-5.6-11.3c-0.9,6,1,12.4,5.6,17L90.8,169.3z"/>
		<path class="st2" d="M250,118.5c-71,0-128.6,57.6-128.6,128.6c0,1,0,1.9,0,2.9c1.5-69.7,58.5-125.8,128.6-125.8
			c70.1,0,127.1,56,128.6,125.8c0-1,0-1.9,0-2.9C378.6,176.1,321,118.5,250,118.5z"/>
		<path class="st2" d="M475.8,297.2l-56.9,3.6c-3.1,9.7-7,19-11.6,27.9l1.8,2c3.8-7.8,7.1-15.9,9.8-24.3l56.9-3.6c11,0,20-9,20-20
			v-5.7C495.8,288.2,486.8,297.2,475.8,297.2z"/>
		<path class="st2" d="M90.8,330.7l1.8-2c-4.6-8.9-8.5-18.2-11.6-27.9l-56.9-3.6c-11,0-20-9-20-20v5.7c0,11.1,9,20,20,20l56.9,3.6
			C83.7,314.9,87,322.9,90.8,330.7z"/>
		<path class="st2" d="M445,399.7l-42.4,42.4c-7.8,7.8-20.5,7.8-28.3,0l-42.8-37.7c-8.9,4.6-18.2,8.5-27.9,11.6l-3.6,56.9
			c0,11-9,20-20,20h-60c-11,0-20-9-20-20l-3.6-56.9c-9.7-3.1-19-7-27.9-11.6l-42.8,37.7c-7.8,7.8-20.5,7.8-28.3,0L55,399.7
			c-3.2-3.2-5-7.2-5.6-11.3c-0.9,6,1,12.4,5.6,17l42.4,42.4c7.8,7.8,20.5,7.8,28.3,0l42.8-37.7c8.9,4.6,18.2,8.5,27.9,11.6l3.6,56.9
			c0,11,9,20,20,20h60c11.1,0,20-9,20-20l3.6-56.9c9.7-3.1,19-7,27.9-11.6l42.8,37.7c7.8,7.8,20.5,7.8,28.3,0l42.4-42.4
			c4.6-4.6,6.5-11,5.6-17C450.1,392.6,448.2,396.5,445,399.7z"/>
	</g>
	<g class="st4">
		<path class="st5" d="M250,321.5c37.9,0,68.6-30.7,68.6-68.6c0-1,0-1.9-0.1-2.9c-1.5,36.6-31.6,65.7-68.5,65.7
			c-36.9,0-67-29.2-68.5-65.7c0,0.9-0.1,1.9-0.1,2.9C181.4,290.7,212.1,321.5,250,321.5z"/>
	</g>
	<path class="st6" d="M475.8,197.1l-56.9-3.6c-3.1-9.7-7-19-11.6-27.9l37.7-42.8c7.8-7.8,7.8-20.5,0-28.3l-42.4-42.4
		c-7.8-7.8-20.5-7.8-28.3,0l-42.8,37.7c-8.9-4.6-18.2-8.5-27.9-11.6L300,21.4c0-11-9-20-20-20h-30v177.2c37.9,0,68.6,30.7,68.6,68.6
		c0,37.9-30.7,68.6-68.6,68.6v177.2h30c11.1,0,20-9,20-20l3.6-56.9c9.7-3.1,19-7,27.9-11.6l42.8,37.7c7.8,7.8,20.5,7.8,28.3,0
		l42.4-42.4c7.8-7.8,7.8-20.5,0-28.3l-37.7-42.8c4.6-8.9,8.5-18.2,11.6-27.9l56.9-3.6c11,0,20-9,20-20v-60
		C495.8,206.1,486.8,197.1,475.8,197.1z"/>
</g>
</svg>
