<?xml version="1.0" encoding="utf-8"?>
<!-- Generator: Adobe Illustrator 16.0.0, SVG Export Plug-In . SVG Version: 6.00 Build 0)  -->
<!DOCTYPE svg PUBLIC "-//W3C//DTD SVG 1.1//EN" "http://www.w3.org/Graphics/SVG/1.1/DTD/svg11.dtd">
<svg version="1.1" id="Layer_1" xmlns="http://www.w3.org/2000/svg" xmlns:xlink="http://www.w3.org/1999/xlink" x="0px" y="0px"
	 width="500px" height="500px" viewBox="0 0 500 500" style="enable-background:new 0 0 500 500;" xml:space="preserve">
<style type="text/css">
<![CDATA[
	.st0{opacity:0.1;fill-rule:evenodd;clip-rule:evenodd;fill:#161616;}
	.st1{fill:#C7C5C5;}
	.st2{opacity:0.3;}
	.st3{opacity:0.1;fill:#231F20;}
]]>
</style>
<g>
	<g>
		<path class="st1" d="M357.7,218.1c38,10.4,80.5,1,110.4-28.2c29.6-29.1,39.3-70.2,29.1-107.2l-64,62.6l-62.7-16.5l-16.8-61.4
			l64-62.6c-37.8-10-79.8-0.5-109.5,28.5c-31.2,30.5-40.3,74.3-27.5,112.7l-0.3,0.3L16.9,404.1C6.5,414.3,1.2,427.6,1.2,441
			c0,13.4,5.3,26.7,15.7,36.9c20.8,20.4,54.5,20.4,75.5,0 M25.8,445.5c0-11,9.1-19.8,20.4-19.8c11.3,0,20.4,8.9,20.4,19.8
			c0,11.1-9.1,20-20.4,20C35,465.5,25.8,456.5,25.8,445.5z"/>
	</g>
	<path class="st2" d="M355,72.1l62.7-61.4c-1.6-0.4-3.2-0.8-4.8-1.1l-59.2,57.9L355,72.1z"/>
	<path class="st2" d="M46.2,425.7c-11.3,0-20.4,8.9-20.4,19.8c0,1,0.1,2,0.2,2.9c1.4-9.6,9.9-17,20.2-17s18.7,7.4,20.1,16.9
		c0.1-1,0.2-1.9,0.2-2.9C66.6,434.5,57.5,425.7,46.2,425.7z"/>
	<path class="st2" d="M468.2,189.9c-29.9,29.2-72.4,38.6-110.4,28.2L92.4,477.9c-20.9,20.4-54.7,20.4-75.5,0
		c-9.7-9.5-14.9-21.6-15.6-34c-0.1,1-0.1,1.9-0.1,2.9c0,13.4,5.3,26.7,15.7,36.9c20.8,20.4,54.5,20.4,75.5,0l265.3-259.8
		c38,10.4,80.5,1,110.4-28.2c22.7-22.3,33.7-51.7,33-80.9C500.4,142.1,489.4,169.1,468.2,189.9z"/>
	<path class="st0" d="M497.3,82.8l-64,62.6l-62.7-16.5L60.9,431.7c3.5,3.6,5.7,8.4,5.7,13.8c0,11.1-9.1,20-20.4,20
		c-5.5,0-10.5-2.1-14.1-5.6l-16.8,16.4c0.5,0.5,1,1.1,1.6,1.6c20.8,20.4,54.5,20.4,75.5,0l265.3-259.8c38,10.4,80.5,1,110.4-28.2
		C497.8,160.8,507.5,119.7,497.3,82.8z"/>
	<path class="st3" d="M497.3,82.8l-64,62.6l-62.7-16.5l-16.8-61.4l64-62.6c-37.8-10-79.8-0.5-109.5,28.5
		c-31.2,30.5-40.3,74.3-27.5,112.7l-0.3,0.3l-29.1,28.5v147.5l106.5-104.3c38,10.4,80.5,1,110.4-28.2
		C497.8,160.8,507.5,119.7,497.3,82.8z"/>
</g>
</svg>
